<?xml version="1.0" encoding="UTF-8" standalone="no"?>
<!DOCTYPE svg PUBLIC "-//W3C//DTD SVG 1.1//EN" "http://www.w3.org/Graphics/SVG/1.1/DTD/svg11.dtd">
<svg width="100%" height="100%" viewBox="0 0 16 16" version="1.1" xmlns="http://www.w3.org/2000/svg" xmlns:xlink="http://www.w3.org/1999/xlink" xml:space="preserve" xmlns:affinity="https://www.affinity.studio/" style="fill-rule:evenodd;clip-rule:evenodd;stroke-linejoin:round;stroke-miterlimit:2;fill:white;">
    <g id="connectionMariaDB" transform="matrix(0.015625,0,0,0.015625,0,0)">
        <g transform="matrix(1,0,0,1,128,0)">
            <path d="M590.61,6.756C768.073,23.755 895.921,71.598 895.921,127.96C895.921,128.553 895.907,129.145 895.878,129.74L895.878,385.635L895.921,385.641C895.921,386.229 895.907,386.815 895.878,387.404L895.878,640.92L895.921,640.926C895.921,641.513 895.907,642.1 895.878,642.689L895.878,896.182L894.113,896.182L895.921,896.456C895.921,966.368 695.364,1023.045 447.96,1023.045C200.782,1023.045 0.361,966.47 0,896.635L-0,640.926L-0,631.626C20.469,630.536 42.728,630.799 66.902,632.466C70.327,634.856 75.938,638.709 79.637,640.926C88.436,646.2 99.242,652.044 109.449,655.979C117.105,658.931 125.233,661.768 133.804,664.486C152.512,711.983 174.064,738.723 232.527,700.618C237.582,697.323 242.765,693.729 248.012,689.731C307.462,698.603 375.588,703.523 447.96,703.523C586.895,703.523 710.182,685.391 786.473,655.979C796.679,652.045 807.485,646.201 816.285,640.926L831.887,631.381L831.887,450.899C753.477,487.654 610.875,512.23 447.96,512.23C412.932,512.23 378.843,511.094 346.129,508.945C347.973,499.819 349.674,490.263 351.215,480.253C354.712,468.21 358.421,456.767 362.314,445.876C389.968,447.43 418.615,448.239 447.96,448.239C586.895,448.239 710.182,430.106 786.473,400.694C796.679,396.76 807.485,390.916 816.285,385.641L831.887,376.096L831.887,193.853C759.95,227.902 633.982,251.6 487.866,255.28C512.427,231.283 535.606,210.566 554.122,187.467C648.7,180.708 730.318,165.019 786.473,143.16C796.679,139.186 807.485,133.286 816.285,127.96C807.485,122.634 796.679,116.733 786.473,112.76C738.689,94.159 672.469,80.026 595.514,72.061C595.744,59.841 595.094,46.661 593.465,32.345C591.966,23.44 591.025,14.909 590.61,6.756ZM63.991,706.164L63.991,885.948C64.962,886.637 74.294,893.254 79.637,896.456C88.436,901.73 99.242,907.574 109.449,911.509C185.74,940.92 309.027,959.053 447.96,959.053C586.895,959.053 710.182,940.92 786.473,911.509C796.679,907.574 807.485,901.73 816.285,896.456L831.887,886.911L831.887,706.184C753.477,742.938 610.875,767.515 447.96,767.515C284.998,767.515 142.358,742.924 63.991,706.164Z"/>
        </g>
        <g id="Seal" transform="matrix(9.266722,0,0,9.266722,-16195.465453,-330.801178)">
            <path d="M1748.693,84.208C1759.197,72.61 1766.171,48.251 1782.137,41.396C1790.69,37.723 1797.06,39.59 1801.48,38.494C1807.389,37.029 1810.515,36.026 1813.245,35.936C1815.735,35.856 1818.436,38.373 1818.466,41.013C1818.579,51.224 1814.393,55.991 1810.453,59.541C1806.513,63.091 1800.289,66.711 1797.589,73.401C1795.329,78.781 1792.198,87.595 1790.308,94.485C1789.736,96.568 1789.34,98.021 1789.015,99.15C1784.967,109.886 1779.893,108.591 1781.839,99.248C1782.096,98.521 1782.365,97.681 1782.651,96.71C1786.871,82.41 1792.17,70.58 1794.89,66.35C1797.54,62.22 1801.67,59.67 1805.44,57.03C1809.72,54.02 1813.55,50.89 1814.21,45.16C1809.69,44.74 1808.65,43.7 1807.98,41.42C1805.72,42.69 1803.64,42.97 1801.29,43.04C1799.25,43.1 1797.01,43.01 1794.27,43.29C1771.64,45.61 1771.437,65.268 1756.772,81.867C1756.083,82.647 1753.633,84.638 1751.827,86.061C1748.641,87.78 1747.306,86.2 1748.693,84.208Z"/>
            <path id="path4457-3_3_" d="M1786.73,52.65C1789.93,55.43 1796.65,53.2 1795.45,47.67C1790.47,47.25 1787.59,48.94 1786.73,52.65Z"/>
            <path id="path4459-4_3_" d="M1809.06,46.18C1808.21,47.97 1806.58,50.27 1806.58,54.82C1806.57,55.6 1805.99,56.14 1805.98,54.93C1806.02,50.48 1807.2,48.56 1808.45,46.04C1809.02,45.01 1809.37,45.43 1809.06,46.18Z" style="fill-rule:nonzero;"/>
            <path id="path4461-6_3_" d="M1808.2,45.51C1807.19,47.21 1804.77,50.32 1804.38,54.86C1804.31,55.64 1803.67,56.12 1803.77,54.92C1804.21,50.5 1806.14,47.73 1807.61,45.32C1808.27,44.34 1808.58,44.79 1808.2,45.51Z" style="fill-rule:nonzero;"/>
            <path id="path4463-0_3_" d="M1807.42,44.62C1806.27,46.23 1802.55,49.97 1801.77,54.45C1801.63,55.22 1800.96,55.64 1801.16,54.46C1801.97,50.09 1805.18,46.65 1806.84,44.38C1807.58,43.45 1807.86,43.93 1807.42,44.62Z" style="fill-rule:nonzero;"/>
            <path id="path4465-8_3_" d="M1806.72,43.62C1805.36,45.06 1800.92,49.82 1799.52,54.15C1799.27,54.89 1798.55,55.22 1798.91,54.07C1800.32,49.85 1804.21,45.31 1806.18,43.3C1807.05,42.49 1807.25,43.01 1806.72,43.62Z" style="fill-rule:nonzero;"/>
        </g>
    </g>
</svg>
