<?xml version="1.0" encoding="UTF-8" standalone="no"?>
<!DOCTYPE svg PUBLIC "-//W3C//DTD SVG 1.1//EN" "http://www.w3.org/Graphics/SVG/1.1/DTD/svg11.dtd">
<svg class="railroad-diagram" width="695" height="78" viewBox="0 0 695 78" id="dropRestDaemonStatement" xmlns="http://www.w3.org/2000/svg" xmlns:xlink="http://www.w3.org/1999/xlink"><g transform="translate(.5 .5)"><g><path d="M20 37v20m0 -10h20"></path></g><g><path d="M40 47h0"></path><path d="M655 47h0"></path><path d="M40 47h20"></path><g><path d="M60 47h0"></path><g><path d="M60 47h10"></path><path d="M625 47h10"></path><g class="terminal "><path d="M70 47h0"></path><path d="M124 47h0"></path><rect x="70" y="36" width="54" height="22"></rect><text x="97" y="51">DROP</text></g><path d="M124 47h10"></path><path d="M134 47h10"></path><g class="terminal "><path d="M144 47h0"></path><path d="M198 47h0"></path><rect x="144" y="36" width="54" height="22"></rect><text x="171" y="51">REST</text></g><path d="M198 47h10"></path><path d="M208 47h10"></path><g class="terminal "><path d="M218 47h0"></path><path d="M289 47h0"></path><rect x="218" y="36" width="71" height="22"></rect><text x="253.5" y="51">DAEMON</text></g><path d="M289 47h10"></path><g><path d="M299 47h0"></path><path d="M527 47h0"></path><path d="M299 47a10 10 0 0 0 10 -10v-7a10 10 0 0 1 10 -10"></path><g><path d="M319 20h188"></path></g><path d="M507 20a10 10 0 0 1 10 10v7a10 10 0 0 0 10 10"></path><path d="M299 47h20"></path><g><path d="M319 47h0"></path><path d="M507 47h0"></path><path d="M319 47h20"></path><g><path d="M339 47h0"></path><g><path d="M339 47h10"></path><path d="M477 47h10"></path><g class="terminal "><path d="M349 47h0"></path><path d="M386 47h0"></path><rect x="349" y="36" width="37" height="22"></rect><text x="367.5" y="51">IF</text></g><path d="M386 47h10"></path><path d="M396 47h10"></path><g class="terminal "><path d="M406 47h0"></path><path d="M477 47h0"></path><rect x="406" y="36" width="71" height="22"></rect><text x="441.5" y="51">EXISTS</text></g></g><path d="M487 47h0"></path></g><path d="M487 47h20"></path></g><path d="M507 47h20"></path></g><path d="M527 47h10"></path><g class="non-terminal "><path d="M537 47h0"></path><path d="M625 47h0"></path><rect x="537" y="36" width="88" height="22" rx="10" ry="10"></rect><text x="581" y="51">daemonId</text></g></g><path d="M635 47h0"></path></g><path d="M635 47h20"></path></g><path d="M 655 47 h 20 m 0 -10 v 20"></path></g><defs><style type="text/css"><![CDATA[
svg.railroad-diagram path { stroke-width: 2; stroke: darkgray; fill: rgba(0, 0, 0, 0); }svg.railroad-diagram text { font: bold 12px Hack, "Source Code Pro", monospace; text-anchor: middle; fill: #404040; }svg.railroad-diagram text.comment { font: italic 10px Hack, "Source Code Pro", monospace; fill: #404040; }svg.railroad-diagram g.terminal rect { stroke-width: 2; stroke: #404040; fill: rgba(200, 200, 200, 0.8); }svg.railroad-diagram g.non-terminal rect { stroke-width: 2; stroke: #404040; fill: rgba(255, 255, 255, 1); }svg.railroad-diagram text.diagram-text { font-size: 12px Hack, "Source Code Pro", monospace; fill: red; }svg.railroad-diagram path.diagram-text { stroke-width: 1; stroke: red; fill: red; cursor: help; }
 ]]>
</style></defs></svg>