<?xml version="1.0" encoding="UTF-8" standalone="no"?>
<!DOCTYPE svg PUBLIC "-//W3C//DTD SVG 1.1//EN" "http://www.w3.org/Graphics/SVG/1.1/DTD/svg11.dtd">
<svg class="railroad-diagram" width="519.5" height="100" viewBox="0 0 519.5 100" id="formatClause" xmlns="http://www.w3.org/2000/svg" xmlns:xlink="http://www.w3.org/1999/xlink"><g transform="translate(.5 .5)"><g><path d="M20 21v20m0 -10h20"></path></g><g><path d="M40 31h0"></path><path d="M479.5 31h0"></path><path d="M40 31h20"></path><g><path d="M60 31h0"></path><g><path d="M60 31h10"></path><path d="M449.5 31h10"></path><g class="terminal "><path d="M70 31h0"></path><path d="M141 31h0"></path><rect x="70" y="20" width="71" height="22"></rect><text x="105.5" y="35">FORMAT</text></g><path d="M141 31h10"></path><path d="M151 31h10"></path><g class="terminal "><path d="M161 31h0"></path><path d="M223.5 31h0"></path><rect x="161" y="20" width="62.5" height="22"></rect><text x="192.25" y="35">EQUAL</text></g><path d="M223.5 31h10"></path><g><path d="M233.5 31h0"></path><path d="M449.5 31h0"></path><path d="M233.5 31h20"></path><g><path d="M253.5 31h51"></path><g><path d="M304.5 31h10"></path><path d="M368.5 31h10"></path><g class="terminal "><path d="M314.5 31h0"></path><path d="M368.5 31h0"></path><rect x="314.5" y="20" width="54" height="22"></rect><text x="341.5" y="35">JSON</text></g></g><path d="M378.5 31h51"></path></g><path d="M429.5 31h20"></path><path d="M233.5 31a10 10 0 0 1 10 10v18a10 10 0 0 0 10 10"></path><g><path d="M253.5 69h0"></path><g><path d="M253.5 69h10"></path><path d="M419.5 69h10"></path><g class="non-terminal "><path d="M263.5 69h0"></path><path d="M419.5 69h0"></path><rect x="263.5" y="58" width="156" height="22" rx="10" ry="10"></rect><text x="341.5" y="73">textOrIdentifier</text></g></g><path d="M429.5 69h0"></path></g><path d="M429.5 69a10 10 0 0 0 10 -10v-18a10 10 0 0 1 10 -10"></path></g></g><path d="M459.5 31h0"></path></g><path d="M459.5 31h20"></path></g><path d="M 479.5 31 h 20 m 0 -10 v 20"></path></g><defs><style type="text/css"><![CDATA[
svg.railroad-diagram path { stroke-width: 2; stroke: darkgray; fill: rgba(0, 0, 0, 0); }svg.railroad-diagram text { font: bold 12px Hack, "Source Code Pro", monospace; text-anchor: middle; fill: #404040; }svg.railroad-diagram text.comment { font: italic 10px Hack, "Source Code Pro", monospace; fill: #404040; }svg.railroad-diagram g.terminal rect { stroke-width: 2; stroke: #404040; fill: rgba(200, 200, 200, 0.8); }svg.railroad-diagram g.non-terminal rect { stroke-width: 2; stroke: #404040; fill: rgba(255, 255, 255, 1); }svg.railroad-diagram text.diagram-text { font-size: 12px Hack, "Source Code Pro", monospace; fill: red; }svg.railroad-diagram path.diagram-text { stroke-width: 1; stroke: red; fill: red; cursor: help; }
 ]]>
</style></defs></svg>